<svg width="21" height="21" viewBox="0 0 21 21" fill="none" xmlns="http://www.w3.org/2000/svg">
<path d="M10.0907 18.785C5.68068 18.785 2.09068 15.195 2.09068 10.785C2.09068 6.37503 5.68068 2.78503 10.0907 2.78503C14.5007 2.78503 18.0907 6.37503 18.0907 10.785C18.0907 15.195 14.5007 18.785 10.0907 18.785ZM10.0907 0.785034C4.56068 0.785034 0.090683 5.25503 0.090683 10.785C0.090683 16.315 4.56068 20.785 10.0907 20.785C15.6207 20.785 20.0907 16.315 20.0907 10.785C20.0907 5.25503 15.6207 0.785034 10.0907 0.785034ZM12.6807 6.78503L10.0907 9.37503L7.50068 6.78503L6.09068 8.19503L8.68068 10.785L6.09068 13.375L7.50068 14.785L10.0907 12.195L12.6807 14.785L14.0907 13.375L11.5007 10.785L14.0907 8.19503L12.6807 6.78503Z" fill="#FF0000"/>
</svg>
