<svg width="37" height="37" viewBox="0 0 37 37" fill="none" xmlns="http://www.w3.org/2000/svg">
<path d="M13.0625 2V3.83333H4V7.5H5.8125V31.3333C5.8125 32.3058 6.19442 33.2384 6.87424 33.9261C7.55406 34.6137 8.47609 35 9.4375 35H27.5625C28.5239 35 29.4459 34.6137 30.1258 33.9261C30.8056 33.2384 31.1875 32.3058 31.1875 31.3333V7.5H33V3.83333H23.9375V2H13.0625ZM9.4375 7.5H27.5625V31.3333H9.4375V7.5ZM13.0625 11.1667V27.6667H16.6875V11.1667H13.0625ZM20.3125 11.1667V27.6667H23.9375V11.1667H20.3125Z" fill="black"/>
<path fill-rule="evenodd" clip-rule="evenodd" d="M13.0625 3.83333V2H23.9375V3.83333H33V7.5H31.1875V31.3333C31.1875 32.3058 30.8056 33.2384 30.1258 33.9261C29.4459 34.6137 28.5239 35 27.5625 35H9.4375C8.47609 35 7.55406 34.6137 6.87424 33.9261C6.19442 33.2384 5.8125 32.3058 5.8125 31.3333V7.5H4V3.83333H13.0625ZM27.5625 7.5H9.4375V31.3333H27.5625V7.5ZM13.0625 11.1667V27.6667H16.6875V11.1667H13.0625ZM20.3125 11.1667V27.6667H23.9375V11.1667H20.3125Z" fill="black"/>
</svg>
