<svg width="437" height="72" viewBox="0 0 437 72" fill="none" xmlns="http://www.w3.org/2000/svg">
<path d="M43.1931 0.181824H57.9545V45.5227C57.9545 50.6136 56.7386 55.0682 54.3068 58.8864C51.8977 62.7046 48.5227 65.6818 44.1818 67.8182C39.8408 69.9318 34.784 70.9886 29.0113 70.9886C23.2158 70.9886 18.1477 69.9318 13.8068 67.8182C9.46584 65.6818 6.09084 62.7046 3.68175 58.8864C1.27266 55.0682 0.0681152 50.6136 0.0681152 45.5227V0.181824H14.8295V44.2614C14.8295 46.9205 15.409 49.2841 16.5681 51.3523C17.7499 53.4205 19.409 55.0455 21.5454 56.2273C23.6818 57.4091 26.1704 58 29.0113 58C31.8749 58 34.3636 57.4091 36.4772 56.2273C38.6136 55.0455 40.2613 53.4205 41.4204 51.3523C42.6022 49.2841 43.1931 46.9205 43.1931 44.2614V0.181824Z" fill="white"/>
<path d="M113.395 32.5682L100.099 33.3864C99.8721 32.25 99.3835 31.2273 98.6335 30.3182C97.8835 29.3864 96.8948 28.6477 95.6675 28.1023C94.463 27.5341 93.0198 27.25 91.338 27.25C89.088 27.25 87.1903 27.7273 85.6448 28.6818C84.0994 29.6136 83.3266 30.8636 83.3266 32.4318C83.3266 33.6818 83.8266 34.7386 84.8266 35.6023C85.8266 36.4659 87.5425 37.1591 89.9744 37.6818L99.4516 39.5909C104.543 40.6364 108.338 42.3182 110.838 44.6364C113.338 46.9545 114.588 50 114.588 53.7727C114.588 57.2046 113.577 60.2159 111.554 62.8068C109.554 65.3977 106.804 67.4205 103.304 68.875C99.8266 70.3068 95.8153 71.0227 91.2698 71.0227C84.338 71.0227 78.8153 69.5796 74.7016 66.6932C70.6107 63.7841 68.213 59.8296 67.5085 54.8296L81.7925 54.0796C82.2244 56.1932 83.2698 57.8068 84.9289 58.9205C86.588 60.0114 88.713 60.5568 91.3039 60.5568C93.8494 60.5568 95.8948 60.0682 97.4403 59.0909C99.0085 58.0909 99.8039 56.8068 99.8266 55.2386C99.8039 53.9205 99.2471 52.8409 98.1562 52C97.0653 51.1364 95.3835 50.4773 93.1107 50.0227L84.0425 48.2159C78.9289 47.1932 75.1221 45.4205 72.6221 42.8977C70.1448 40.375 68.9062 37.1591 68.9062 33.25C68.9062 29.8864 69.8153 26.9886 71.6335 24.5568C73.4744 22.125 76.0539 20.25 79.3721 18.9318C82.713 17.6136 86.6221 16.9546 91.0994 16.9546C97.713 16.9546 102.918 18.3523 106.713 21.1477C110.531 23.9432 112.758 27.75 113.395 32.5682Z" fill="white"/>
<path d="M181.108 70V17.6364H195.187V26.7727H195.733C196.687 23.5227 198.29 21.0682 200.54 19.4091C202.79 17.7273 205.381 16.8864 208.312 16.8864C209.04 16.8864 209.824 16.9318 210.665 17.0227C211.506 17.1136 212.244 17.2386 212.881 17.3977V30.2841C212.199 30.0795 211.256 29.8977 210.051 29.7386C208.847 29.5796 207.744 29.5 206.744 29.5C204.608 29.5 202.699 29.9659 201.017 30.8977C199.358 31.8068 198.04 33.0796 197.062 34.7159C196.108 36.3523 195.631 38.2386 195.631 40.375V70H181.108Z" fill="white"/>
<path d="M218.003 12.3523V0.181824H275.344V12.3523H253.969V70H239.378V12.3523H218.003Z" fill="#B500F4"/>
<path d="M292.321 70.9886C288.98 70.9886 286.003 70.4091 283.389 69.25C280.775 68.0682 278.707 66.3296 277.185 64.0341C275.685 61.7159 274.935 58.8296 274.935 55.375C274.935 52.4659 275.469 50.0227 276.537 48.0455C277.605 46.0682 279.06 44.4773 280.901 43.2727C282.741 42.0682 284.832 41.1591 287.173 40.5455C289.537 39.9318 292.014 39.5 294.605 39.25C297.65 38.9318 300.105 38.6364 301.969 38.3636C303.832 38.0682 305.185 37.6364 306.026 37.0682C306.866 36.5 307.287 35.6591 307.287 34.5455V34.3409C307.287 32.1818 306.605 30.5114 305.241 29.3296C303.901 28.1477 301.991 27.5568 299.514 27.5568C296.9 27.5568 294.821 28.1364 293.276 29.2955C291.73 30.4318 290.707 31.8636 290.207 33.5909L276.776 32.5C277.457 29.3182 278.798 26.5682 280.798 24.25C282.798 21.9091 285.378 20.1136 288.537 18.8636C291.719 17.5909 295.401 16.9546 299.582 16.9546C302.491 16.9546 305.276 17.2955 307.935 17.9773C310.616 18.6591 312.991 19.7159 315.06 21.1477C317.151 22.5796 318.798 24.4205 320.003 26.6705C321.207 28.8977 321.81 31.5682 321.81 34.6818V70H308.037V62.7386H307.628C306.787 64.375 305.662 65.8182 304.253 67.0682C302.844 68.2955 301.15 69.2614 299.173 69.9659C297.196 70.6477 294.912 70.9886 292.321 70.9886ZM296.48 60.9659C298.616 60.9659 300.503 60.5455 302.139 59.7046C303.775 58.8409 305.06 57.6818 305.991 56.2273C306.923 54.7727 307.389 53.125 307.389 51.2841V45.7273C306.935 46.0227 306.31 46.2955 305.514 46.5455C304.741 46.7727 303.866 46.9886 302.889 47.1932C301.912 47.375 300.935 47.5455 299.957 47.7046C298.98 47.8409 298.094 47.9659 297.298 48.0796C295.594 48.3296 294.105 48.7273 292.832 49.2727C291.56 49.8182 290.571 50.5568 289.866 51.4886C289.162 52.3977 288.81 53.5341 288.81 54.8977C288.81 56.875 289.525 58.3864 290.957 59.4318C292.412 60.4546 294.253 60.9659 296.48 60.9659Z" fill="#B500F4"/>
<path d="M376.645 32.5682L363.349 33.3864C363.122 32.25 362.633 31.2273 361.883 30.3182C361.133 29.3864 360.145 28.6477 358.918 28.1023C357.713 27.5341 356.27 27.25 354.588 27.25C352.338 27.25 350.44 27.7273 348.895 28.6818C347.349 29.6136 346.577 30.8636 346.577 32.4318C346.577 33.6818 347.077 34.7386 348.077 35.6023C349.077 36.4659 350.793 37.1591 353.224 37.6818L362.702 39.5909C367.793 40.6364 371.588 42.3182 374.088 44.6364C376.588 46.9545 377.838 50 377.838 53.7727C377.838 57.2046 376.827 60.2159 374.804 62.8068C372.804 65.3977 370.054 67.4205 366.554 68.875C363.077 70.3068 359.065 71.0227 354.52 71.0227C347.588 71.0227 342.065 69.5796 337.952 66.6932C333.861 63.7841 331.463 59.8296 330.758 54.8296L345.043 54.0796C345.474 56.1932 346.52 57.8068 348.179 58.9205C349.838 60.0114 351.963 60.5568 354.554 60.5568C357.099 60.5568 359.145 60.0682 360.69 59.0909C362.258 58.0909 363.054 56.8068 363.077 55.2386C363.054 53.9205 362.497 52.8409 361.406 52C360.315 51.1364 358.633 50.4773 356.361 50.0227L347.293 48.2159C342.179 47.1932 338.372 45.4205 335.872 42.8977C333.395 40.375 332.156 37.1591 332.156 33.25C332.156 29.8864 333.065 26.9886 334.883 24.5568C336.724 22.125 339.304 20.25 342.622 18.9318C345.963 17.6136 349.872 16.9546 354.349 16.9546C360.963 16.9546 366.168 18.3523 369.963 21.1477C373.781 23.9432 376.008 27.75 376.645 32.5682Z" fill="#B500F4"/>
<path fill-rule="evenodd" clip-rule="evenodd" d="M400.176 37.5114L400.142 54.9318L401.506 53.3748V70H386.983V0.181824H401.506V37.5114H400.176ZM416.312 40.3187L435.733 17.6364H419.062L402.29 37.5114H401.506V53.3748L405.441 48.8808L419.71 70H436.722L416.312 40.3187Z" fill="#B500F4"/>
<path d="M400.176 37.5114L400.142 54.9318L401.506 53.3748V37.5114H400.176Z" fill="#B500F4"/>
<path fill-rule="evenodd" clip-rule="evenodd" d="M133.687 67.75C137.574 69.9318 142.21 71.0227 147.597 71.0227C151.915 71.0227 155.722 70.3636 159.017 69.0455C162.335 67.7046 165.04 65.8409 167.131 63.4546C169.244 61.0455 170.642 58.2273 171.324 55L157.892 54.1136C157.392 55.4318 156.665 56.5455 155.71 57.4546C154.756 58.3636 153.608 59.0455 152.267 59.5C150.926 59.9546 149.449 60.1818 147.835 60.1818C145.403 60.1818 143.301 59.6705 141.528 58.6477C139.756 57.625 138.381 56.1705 137.403 54.2841C136.449 52.3977 135.972 50.1591 135.972 47.5682V47.5341H171.631V43.5455C171.631 39.0909 171.006 35.2046 169.756 31.8864C168.506 28.5455 166.756 25.7727 164.506 23.5682C162.278 21.3636 159.665 19.7159 156.665 18.625C153.687 17.5114 150.472 16.9546 147.017 16.9546C141.881 16.9546 137.403 18.0909 133.585 20.3636C129.79 22.6364 126.847 25.8068 124.756 29.875C122.665 33.9432 121.619 38.6705 121.619 44.0568C121.619 49.5796 122.665 54.3636 124.756 58.4091C126.847 62.4318 129.824 65.5455 133.687 67.75ZM135.985 38.5341H157.96C157.96 36.4432 157.506 34.5909 156.597 32.9773C155.687 31.3636 154.426 30.1023 152.812 29.1932C151.222 28.2614 149.369 27.7955 147.256 27.7955C145.051 27.7955 143.097 28.3068 141.392 29.3296C139.71 30.3296 138.392 31.6818 137.437 33.3864C136.557 34.9379 136.073 36.6538 135.985 38.5341ZM135.972 39.0114V47.5341H127.415V38.5341H135.985C135.978 38.692 135.973 38.8512 135.972 39.0114Z" fill="white"/>
<path d="M127.415 38.5341V47.5341H135.972V39.0114C135.973 38.8512 135.978 38.692 135.985 38.5341H127.415Z" fill="white"/>
</svg>
